<svg width="210" height="190" viewBox="0 0 210 190" fill="none" xmlns="http://www.w3.org/2000/svg">
<path d="M77.5982 189.02C62.2648 189.02 48.7715 186.873 37.1182 182.58C25.6182 178.44 16.6482 172.997 10.2082 166.25C3.76816 159.503 0.548164 152.527 0.548164 145.32C0.548164 138.42 3.76816 131.827 10.2082 125.54C16.6482 119.253 26.6148 114.193 40.1082 110.36C42.7148 109.593 45.5515 108.903 48.6182 108.29C51.8382 107.523 54.8282 106.91 57.5882 106.45C60.3482 105.837 62.3415 105.53 63.5682 105.53C64.9482 105.53 65.6382 106.297 65.6382 107.83C65.6382 109.057 64.9482 109.823 63.5682 110.13C43.0215 113.043 28.1482 117.797 18.9482 124.39C9.74817 130.983 5.14817 137.96 5.14817 145.32C5.14817 151.76 8.21483 157.97 14.3482 163.95C20.4815 169.93 28.9915 174.837 39.8782 178.67C50.7648 182.503 63.3382 184.42 77.5982 184.42C90.1715 184.42 102.668 182.963 115.088 180.05C127.662 177.29 139.085 173.303 149.358 168.09C159.785 162.877 168.065 156.667 174.198 149.46C180.485 142.253 183.628 134.357 183.628 125.77C183.628 119.79 181.788 113.81 178.108 107.83C174.428 101.697 167.758 95.9467 158.098 90.58C148.592 85.06 134.792 80.1533 116.698 75.86C102.438 72.3333 92.3182 68.27 86.3382 63.67C80.5115 59.07 77.5982 54.24 77.5982 49.18C77.5982 44.12 80.0515 39.1367 84.9582 34.23C90.0182 29.3233 96.3048 25.1067 103.818 21.58C108.572 19.28 115.012 17.2867 123.138 15.6C131.265 13.9133 139.622 13.07 148.208 13.07C155.568 13.07 162.622 13.9133 169.368 15.6C176.115 17.1333 181.788 19.8933 186.388 23.88C190.988 27.7133 193.748 33.08 194.668 39.98C194.822 41.82 195.818 42.74 197.658 42.74C198.885 42.74 200.188 42.2033 201.568 41.13C203.102 39.9033 203.945 38.6767 204.098 37.45C204.712 31.3167 203.562 26.18 200.648 22.04C197.888 17.9 193.902 14.6033 188.688 12.15C183.475 9.54333 177.572 7.70333 170.978 6.62999C164.385 5.55666 157.485 5.02 150.278 5.02C143.225 5.02 136.248 5.48 129.348 6.39999C122.602 7.16666 116.392 8.23999 110.718 9.61999C105.198 11 100.828 12.5333 97.6082 14.22C87.3348 19.4333 78.9015 25.49 72.3082 32.39C65.8682 39.29 62.6482 46.1133 62.6482 52.86C62.6482 58.9933 65.7915 64.82 72.0782 70.34C78.3648 75.7067 88.6382 80.1533 102.898 83.68C119.152 87.5133 132.032 91.8067 141.538 96.56C151.198 101.313 158.098 106.373 162.238 111.74C166.532 117.107 168.678 122.627 168.678 128.3C168.678 134.74 166.455 140.49 162.008 145.55C157.562 150.61 151.812 155.057 144.758 158.89C137.705 162.57 130.115 165.713 121.988 168.32C114.015 170.773 106.425 172.613 99.2182 173.84C92.0115 175.067 86.0315 175.68 81.2782 175.68C67.4782 175.68 56.0548 174.223 47.0082 171.31C38.1148 168.243 31.4448 164.41 26.9982 159.81C22.7048 155.057 20.5582 150.227 20.5582 145.32C20.5582 140.72 22.3215 136.35 25.8482 132.21C29.5282 128.07 34.8182 124.773 41.7182 122.32C48.7715 119.713 57.3582 118.41 67.4782 118.41C69.0115 118.41 69.7782 119.177 69.7782 120.71C69.7782 122.243 69.0115 123.01 67.4782 123.01C53.6782 123.01 43.1748 125.31 35.9682 129.91C28.9148 134.357 25.3882 139.493 25.3882 145.32C25.3882 149.46 27.3815 153.523 31.3682 157.51C35.3548 161.497 41.4882 164.793 49.7682 167.4C58.0482 169.853 68.5515 171.08 81.2782 171.08C86.1848 171.08 92.1648 170.467 99.2182 169.24C106.272 168.013 113.555 166.25 121.068 163.95C128.582 161.497 135.558 158.507 141.998 154.98C148.592 151.453 153.882 147.467 157.868 143.02C162.008 138.573 164.078 133.667 164.078 128.3C164.078 123.853 162.238 119.33 158.558 114.73C155.032 110.13 148.745 105.53 139.698 100.93C130.805 96.33 118.155 92.1133 101.748 88.28C85.9548 84.4467 74.6848 79.4633 67.9382 73.33C61.3448 67.1967 58.0482 60.68 58.0482 53.78C58.0482 48.4133 59.6582 43.0467 62.8782 37.68C66.2515 32.3133 70.7748 27.2533 76.4482 22.5C82.2748 17.7467 88.7148 13.6067 95.7682 10.08C99.2948 8.39332 103.895 6.85999 109.568 5.47999C115.242 3.94666 121.528 2.72 128.428 1.8C135.481 0.879991 142.612 0.419988 149.818 0.419988C157.485 0.419988 164.922 1.03332 172.128 2.25999C179.488 3.48666 186.005 5.55666 191.678 8.46999C197.505 11.3833 201.952 15.2167 205.018 19.97C208.085 24.7233 209.312 30.7033 208.698 37.91C208.545 40.5167 207.242 42.74 204.788 44.58C202.488 46.42 200.035 47.34 197.428 47.34C195.742 47.34 194.132 46.8033 192.598 45.73C191.218 44.6567 190.375 42.8933 190.068 40.44C189.302 34.7667 186.772 30.32 182.478 27.1C178.338 23.7267 173.125 21.2733 166.838 19.74C160.705 18.2067 154.188 17.44 147.288 17.44C139.622 17.44 132.032 18.2067 124.518 19.74C117.005 21.2733 110.718 23.2667 105.658 25.72C98.9115 29.0933 93.3148 32.7733 88.8682 36.76C84.4215 40.7467 82.1982 44.81 82.1982 48.95C82.1982 52.9367 84.8815 56.9233 90.2482 60.91C95.7682 64.7433 104.891 68.1933 117.618 71.26C135.865 75.5533 150.048 80.6133 160.168 86.44C170.442 92.2667 177.648 98.4767 181.788 105.07C186.082 111.663 188.228 118.563 188.228 125.77C188.228 133.59 186.005 140.797 181.558 147.39C177.265 153.983 171.285 159.887 163.618 165.1C156.105 170.16 147.595 174.453 138.088 177.98C128.582 181.66 118.615 184.42 108.188 186.26C97.7615 188.1 87.5648 189.02 77.5982 189.02Z" fill="url(#paint0_linear_22_2)"/>
<defs>
<linearGradient id="paint0_linear_22_2" x1="-34" y1="86" x2="224" y2="86" gradientUnits="userSpaceOnUse">
<stop stop-color="#E4475B"/>
<stop offset="0.5" stop-color="#C315E3"/>
<stop offset="1" stop-color="#8052FF"/>
</linearGradient>
</defs>
</svg>
